<svg id="emjg2Cl1sBD1" xmlns="http://www.w3.org/2000/svg" xmlns:xlink="http://www.w3.org/1999/xlink" viewBox="0 0 500 500" shape-rendering="geometricPrecision" text-rendering="geometricPrecision"><g id="emjg2Cl1sBD2"><line id="emjg2Cl1sBD3" x1="0" y1="-199.123783" x2="300" y2="-198.123783" transform="matrix(1 0 0 1 100 599.123783)" fill="none" stroke="rgba(30,30,30,0.44)" stroke-width="3"/><line id="emjg2Cl1sBD4" x1="0" y1="-199.123783" x2="300" y2="-198.123783" transform="matrix(1 0 0 1 100 499.123783)" fill="none" stroke="rgba(30,30,30,0.44)" stroke-width="3"/><line id="emjg2Cl1sBD5" x1="0" y1="-199.123783" x2="300" y2="-198.123783" transform="matrix(1 0 0 1 100 399.123783)" fill="none" stroke="rgba(30,30,30,0.44)" stroke-width="3"/><line id="emjg2Cl1sBD6" x1="0" y1="-199.123783" x2="300" y2="-198.123783" transform="matrix(1 0 0 1 100 299.123783)" fill="none" stroke="rgba(30,30,30,0.44)" stroke-width="3"/></g><g id="emjg2Cl1sBD7"><line id="emjg2Cl1sBD8" x1="0" y1="-199.123783" x2="0" y2="100.876217" transform="matrix(1 0 0 1 400 299.123783)" fill="none" stroke="rgba(30,30,30,0.44)" stroke-width="3"/><line id="emjg2Cl1sBD9" x1="0" y1="-199.123783" x2="0" y2="100.876217" transform="matrix(1 0 0 1 300 299.123783)" fill="none" stroke="rgba(30,30,30,0.44)" stroke-width="3"/><line id="emjg2Cl1sBD10" x1="0" y1="-199.123783" x2="0" y2="100.876217" transform="matrix(1 0 0 1 200 299.123783)" fill="none" stroke="rgba(30,30,30,0.44)" stroke-width="3"/><line id="emjg2Cl1sBD11" x1="0" y1="-199.123783" x2="0" y2="100.876217" transform="matrix(1 0 0 1 100 299.123783)" fill="none" stroke="rgba(30,30,30,0.44)" stroke-width="3"/></g><ellipse id="emjg2Cl1sBD12" rx="30" ry="30" transform="matrix(1 0 0 1 400 200)" fill="rgb(220,220,220)" stroke="none" stroke-width="1"/><ellipse id="emjg2Cl1sBD13" rx="30" ry="30" transform="matrix(1 0 0 1 100 400)" fill="rgb(220,220,220)" stroke="none" stroke-width="1"/><ellipse id="emjg2Cl1sBD14" rx="30" ry="30" transform="matrix(1 0 0 1 300 400)" fill="rgb(220,220,220)" stroke="none" stroke-width="1"/><ellipse id="emjg2Cl1sBD15" rx="30" ry="30" transform="matrix(1 0 0 1 300 300)" fill="rgb(220,220,220)" stroke="none" stroke-width="1"/><ellipse id="emjg2Cl1sBD16" rx="30" ry="30" transform="matrix(1 0 0 1 200 300)" fill="rgb(220,220,220)" stroke="none" stroke-width="1"/><ellipse id="emjg2Cl1sBD17" rx="30" ry="30" transform="matrix(1 0 0 1 100 200)" fill="rgb(50,50,50)" stroke="none" stroke-width="0"/><ellipse id="emjg2Cl1sBD18" rx="30" ry="30" transform="matrix(1 0 0 1 100 300)" fill="rgb(50,50,50)" stroke="none" stroke-width="0"/><ellipse id="emjg2Cl1sBD19" rx="30" ry="30" transform="matrix(1 0 0 1 300 200)" fill="rgb(50,50,50)" stroke="none" stroke-width="0"/><ellipse id="emjg2Cl1sBD20" rx="30" ry="30" transform="matrix(1 0 0 1 200 400)" fill="rgb(50,50,50)" stroke="none" stroke-width="0"/><ellipse id="emjg2Cl1sBD21" rx="30" ry="30" transform="matrix(1 0 0 1 300 100)" fill="rgb(50,50,50)" stroke="none" stroke-width="0"/><ellipse id="emjg2Cl1sBD22" rx="30" ry="30" transform="matrix(1 0 0 1 200 200)" fill="rgb(50,50,50)" stroke="none" stroke-width="0"/></svg>